<?xml version="1.0" standalone="no"?>
<!DOCTYPE svg PUBLIC "-//W3C//DTD SVG 20010904//EN"
 "http://www.w3.org/TR/2001/REC-SVG-20010904/DTD/svg10.dtd">
<svg version="1.0" xmlns="http://www.w3.org/2000/svg"
 width="112.000000pt" height="108.000000pt" viewBox="0 0 112.000000 108.000000"
 preserveAspectRatio="xMidYMid meet">
<metadata>
Created by potrace 1.10, written by Peter Selinger 2001-2011
</metadata>
<g transform="translate(0.000000,108.000000) scale(0.100000,-0.100000)"
fill="#000000" stroke="none">
<path d="M240 1065 c0 -8 2 -15 4 -15 2 0 6 7 10 15 3 8 1 15 -4 15 -6 0 -10
-7 -10 -15z"/>
<path d="M1075 1070 c3 -5 8 -10 11 -10 2 0 4 5 4 10 0 6 -5 10 -11 10 -5 0
-7 -4 -4 -10z"/>
<path d="M70 1042 c-10 -11 -11 -17 -2 -20 7 -2 12 -10 12 -18 0 -8 5 -14 11
-14 6 0 9 6 6 14 -3 8 -1 17 6 19 9 3 8 9 -3 20 -14 14 -16 14 -30 -1z"/>
<path d="M655 1031 c-77 -27 -160 -87 -206 -148 -45 -61 -48 -85 -3 -27 39 49
86 94 99 94 5 -1 -7 -14 -27 -31 -21 -17 -38 -36 -38 -42 0 -6 -6 -18 -14 -26
-14 -16 -66 -109 -66 -119 0 -2 12 3 26 13 14 9 32 14 40 11 9 -3 28 1 44 9
16 8 35 15 42 14 7 0 4 -5 -8 -10 -20 -10 -18 -14 34 -66 56 -57 58 -69 8 -75
-28 -3 -29 -4 -12 -21 19 -18 41 -24 31 -7 -3 6 1 7 9 4 9 -3 16 -1 16 6 0 6
5 8 10 5 23 -14 8 -33 -31 -39 -33 -5 -44 -3 -55 11 -11 15 -10 23 6 51 11 17
15 32 10 32 -6 0 -19 -14 -30 -32 -19 -32 -19 -32 2 -55 18 -19 32 -23 79 -23
45 0 60 -4 68 -17 8 -14 11 -15 11 -3 0 8 9 26 20 40 20 26 28 76 10 65 -5 -3
-15 -25 -21 -48 l-11 -42 -27 51 c-35 67 -78 122 -110 139 l-26 14 27 1 c15 0
39 5 55 12 15 6 34 12 42 14 8 1 17 8 21 15 4 6 12 9 17 6 5 -3 14 3 21 14 17
26 0 24 -46 -5 -20 -14 -50 -28 -67 -31 -29 -6 -29 -6 -11 9 11 9 24 16 29 16
4 0 14 6 21 13 8 6 23 19 35 27 11 8 21 18 21 23 0 5 -14 -3 -31 -17 -17 -14
-40 -26 -50 -26 -11 0 -27 -6 -34 -14 -8 -7 -31 -17 -52 -21 -20 -3 -43 -14
-51 -23 -11 -15 -12 -14 -6 8 6 22 5 23 -10 11 -14 -12 -16 -12 -10 3 3 9 10
16 15 16 4 0 6 6 3 13 -3 8 16 37 41 65 26 28 44 56 40 61 -7 12 32 34 45 26
5 -3 26 4 47 15 21 11 29 18 18 16 -63 -16 -79 -18 -74 -12 16 18 119 45 140
38 l23 -9 -24 -6 c-37 -10 -20 -14 30 -9 40 5 42 6 20 13 -18 6 -12 7 20 4
116 -10 200 -33 200 -54 0 -5 9 -7 20 -4 14 4 20 0 20 -11 0 -9 8 -16 21 -16
11 0 18 -4 15 -8 -2 -4 7 -9 20 -10 59 -5 -31 56 -147 98 -98 36 -212 41 -294
11z"/>
<path d="M1070 1041 c0 -9 24 -21 43 -21 6 0 2 7 -9 15 -22 17 -34 19 -34 6z"/>
<path d="M1040 1019 c0 -5 5 -7 10 -4 6 3 10 1 10 -4 0 -6 5 -11 11 -11 8 0 8
5 -1 15 -14 17 -30 20 -30 4z"/>
<path d="M290 1010 c-12 -8 -11 -10 8 -10 12 0 22 5 22 10 0 13 -11 13 -30 0z"/>
<path d="M188 1003 c6 -2 18 -2 25 0 6 3 1 5 -13 5 -14 0 -19 -2 -12 -5z"/>
<path d="M653 970 c-48 -21 -52 -26 -24 -26 11 0 17 4 15 8 -3 4 5 8 18 8 13
0 32 7 42 15 28 21 1 18 -51 -5z"/>
<path d="M760 983 c14 -3 29 -10 33 -17 6 -7 7 -6 4 4 -2 8 -16 16 -33 17 -25
1 -26 0 -4 -4z"/>
<path d="M240 946 c0 -14 5 -26 10 -26 6 0 10 9 10 19 0 11 -4 23 -10 26 -6 4
-10 -5 -10 -19z"/>
<path d="M575 960 c-3 -5 -1 -10 4 -10 6 0 11 5 11 10 0 6 -2 10 -4 10 -3 0
-8 -4 -11 -10z"/>
<path d="M697 948 c-6 -4 9 -7 35 -6 27 2 48 7 48 11 0 10 -66 6 -83 -5z"/>
<path d="M655 904 c-29 -22 -112 -64 -127 -64 -7 1 -3 9 9 19 12 10 20 21 17
24 -4 3 -17 -5 -31 -19 -13 -13 -28 -24 -33 -24 -5 0 -7 -7 -4 -15 8 -21 24
-19 24 3 1 16 1 16 14 0 13 -18 32 -25 22 -9 -4 5 11 12 32 16 36 6 102 55
102 76 0 12 -1 11 -25 -7z"/>
<path d="M978 915 c-3 -3 -16 -8 -29 -10 -58 -11 -100 -62 -84 -102 6 -17 7
-17 16 0 12 20 39 23 39 3 0 -9 11 -13 33 -12 22 1 31 -3 29 -12 -1 -8 7 -16
18 -19 11 -3 20 -14 20 -24 0 -11 5 -18 12 -17 19 5 21 -32 2 -53 -23 -26 -12
-34 23 -15 40 20 56 41 48 65 -3 10 -1 22 5 26 21 13 10 32 -15 27 -13 -2 -36
-1 -51 2 -21 6 -24 9 -14 21 13 15 8 19 -22 16 -27 -3 -45 43 -28 74 12 23 11
43 -2 30z m-34 -61 c8 -21 1 -28 -18 -21 -9 4 -13 13 -10 22 8 20 20 19 28 -1z
m146 -135 c0 -18 -18 -9 -23 12 -4 16 -3 18 9 8 8 -6 14 -15 14 -20z"/>
<path d="M780 866 c-14 -12 -26 -29 -28 -37 -2 -8 -8 -15 -13 -17 -5 -2 -9 -9
-9 -17 0 -7 -19 -36 -41 -64 -23 -29 -39 -55 -35 -58 10 -10 36 18 82 87 24
36 53 77 64 92 26 34 13 43 -20 14z"/>
<path d="M300 839 c-19 -11 -46 -33 -60 -47 -14 -15 -37 -35 -52 -45 -20 -12
-28 -25 -27 -45 1 -24 2 -25 7 -5 4 12 20 32 36 44 16 12 43 36 60 52 17 16
49 38 71 48 25 11 32 18 20 18 -11 0 -36 -9 -55 -20z"/>
<path d="M380 815 c13 -14 26 -23 28 -20 6 6 -33 45 -44 45 -4 0 3 -11 16 -25z"/>
<path d="M295 800 c-3 -5 -2 -10 4 -10 5 0 13 5 16 10 3 6 2 10 -4 10 -5 0
-13 -4 -16 -10z"/>
<path d="M300 770 c-9 -6 -10 -10 -3 -10 6 0 15 5 18 10 8 12 4 12 -15 0z"/>
<path d="M941 733 c-14 -26 -29 -51 -34 -54 -5 -4 -7 -15 -4 -25 4 -17 6 -17
12 4 4 12 11 22 15 22 10 0 43 76 38 90 -2 6 -14 -10 -27 -37z"/>
<path d="M820 699 c-30 -62 -60 -104 -60 -85 0 4 14 33 30 66 41 82 38 99 -5
24 -19 -34 -35 -72 -34 -85 1 -30 -46 -167 -65 -188 -7 -9 -36 -63 -64 -121
-60 -126 -70 -133 -177 -113 -78 15 -125 31 -125 44 0 5 -3 9 -7 8 -15 -2 -53
13 -53 21 0 5 -8 11 -19 15 -10 3 -29 15 -42 26 -12 11 -28 17 -35 15 -8 -3
-11 0 -8 8 3 7 -5 20 -18 29 -42 28 -96 82 -101 102 -4 19 -5 18 -6 -2 -1 -18
75 -125 103 -145 20 -13 -2 -175 -38 -275 -11 -32 -12 -43 -3 -43 14 0 62 79
53 87 -3 3 2 12 12 20 12 9 13 13 3 11 -11 -2 -14 7 -12 42 1 25 7 46 12 48 5
2 6 15 2 30 l-6 26 22 -21 c19 -18 22 -30 21 -84 -3 -116 0 -159 10 -159 6 0
9 22 8 52 -2 37 1 53 11 56 10 3 12 0 8 -12 -4 -10 -3 -15 3 -11 12 8 12 3 0
-29 -7 -20 -6 -24 5 -19 10 3 15 -2 15 -16 0 -12 5 -21 10 -21 6 0 8 10 6 23
-3 12 -8 40 -11 62 -10 63 -35 134 -53 147 -17 13 -52 62 -52 73 0 12 21 4 37
-14 9 -11 22 -17 30 -14 9 4 11 0 7 -11 -4 -9 -3 -16 2 -15 5 2 34 -9 64 -23
30 -15 73 -30 95 -34 22 -4 42 -10 45 -14 9 -14 93 -16 98 -2 2 6 10 12 17 12
16 0 0 -51 -45 -134 -17 -32 -26 -56 -19 -54 14 5 59 83 59 104 0 8 4 12 10 9
5 -3 7 0 5 7 -3 7 10 43 28 79 19 36 37 77 40 90 4 13 16 39 27 57 18 30 23
32 38 20 15 -12 16 -11 3 5 -11 14 -11 21 -3 29 7 7 12 20 12 31 0 10 4 15 10
12 5 -3 7 0 5 8 -3 7 1 27 10 43 8 16 15 33 15 37 0 4 18 39 40 78 48 86 81
159 71 159 -4 0 -23 -32 -41 -71z m-580 -565 c0 -8 -4 -14 -10 -14 -5 0 -10 9
-10 21 0 11 5 17 10 14 6 -3 10 -13 10 -21z"/>
<path d="M610 752 c0 -4 9 -13 20 -20 11 -7 20 -9 20 -4 0 4 -9 13 -20 20 -11
7 -20 9 -20 4z"/>
<path d="M196 711 c-4 -5 3 -7 14 -4 23 6 26 13 6 13 -8 0 -17 -4 -20 -9z"/>
<path d="M740 694 c0 -8 5 -12 10 -9 6 3 10 10 10 16 0 5 -4 9 -10 9 -5 0 -10
-7 -10 -16z"/>
<path d="M706 685 c-3 -8 -12 -15 -21 -15 -8 0 -15 -7 -15 -15 0 -8 5 -15 10
-15 6 0 10 5 10 11 0 5 4 8 8 5 4 -2 13 4 20 14 6 11 8 22 3 24 -5 3 -11 -1
-15 -9z"/>
<path d="M190 679 c0 -4 11 -6 24 -5 13 0 22 4 20 8 -6 9 -44 6 -44 -3z"/>
<path d="M996 678 c3 -5 10 -6 15 -3 13 9 11 12 -6 12 -8 0 -12 -4 -9 -9z"/>
<path d="M435 660 c3 -5 15 -10 26 -10 10 0 19 5 19 10 0 6 -12 10 -26 10 -14
0 -23 -4 -19 -10z"/>
<path d="M100 640 c-11 -11 -20 -26 -20 -32 0 -9 3 -9 8 -2 4 5 17 17 30 26
14 9 19 19 13 22 -6 4 -19 -2 -31 -14z"/>
<path d="M170 655 c0 -8 83 -86 86 -82 4 4 -72 87 -80 87 -3 0 -6 -2 -6 -5z"/>
<path d="M1085 630 c3 -5 8 -10 11 -10 2 0 4 5 4 10 0 6 -5 10 -11 10 -5 0 -7
-4 -4 -10z"/>
<path d="M980 620 c0 -5 5 -10 11 -10 5 0 7 5 4 10 -3 6 -8 10 -11 10 -2 0 -4
-4 -4 -10z"/>
<path d="M178 603 c6 -2 12 -10 12 -17 0 -13 69 -56 110 -68 24 -7 23 -7 -5
16 -16 13 -35 22 -41 19 -6 -2 -24 10 -40 26 -16 17 -33 31 -39 30 -5 0 -4 -3
3 -6z"/>
<path d="M1014 602 c-6 -4 -23 -29 -38 -57 -15 -27 -40 -70 -56 -95 -122 -191
-237 -427 -217 -446 9 -9 14 -3 19 21 1 11 5 22 8 25 3 3 16 37 29 77 14 39
28 70 33 67 4 -3 8 1 8 9 0 8 7 20 15 27 8 7 15 19 15 27 0 7 9 23 20 35 10
11 22 33 25 48 3 16 15 36 26 46 20 18 20 17 16 -17 -3 -18 -8 -47 -12 -63 -5
-18 -4 -27 2 -23 5 3 15 32 22 64 15 71 42 147 76 213 14 28 24 50 23 50 -2 0
-8 -4 -14 -8z"/>
<path d="M37 562 c-21 -22 -27 -37 -26 -68 2 -32 3 -34 6 -10 6 37 33 78 47
73 7 -3 12 4 12 14 0 26 -8 24 -39 -9z"/>
<path d="M297 579 c7 -7 15 -10 18 -7 3 3 -2 9 -12 12 -14 6 -15 5 -6 -5z"/>
<path d="M1112 560 c0 -14 2 -19 5 -12 2 6 2 18 0 25 -3 6 -5 1 -5 -13z"/>
<path d="M56 532 c-2 -4 -1 -14 4 -22 7 -11 9 -9 7 8 -1 24 -3 26 -11 14z"/>
<path d="M1094 515 c-3 -8 -4 -20 -2 -27 3 -7 7 -1 10 15 6 29 1 36 -8 12z"/>
<path d="M1070 453 c-9 -10 -24 -40 -35 -68 -30 -74 -29 -76 6 -10 17 33 36
63 42 66 5 4 8 12 6 18 -3 7 -10 5 -19 -6z"/>
<path d="M1000 427 c0 -8 -11 -36 -25 -63 -22 -43 -56 -137 -55 -153 1 -13 50
75 50 89 0 8 9 32 20 52 23 43 33 88 19 88 -5 0 -9 -6 -9 -13z"/>
<path d="M1025 308 c-13 -43 -26 -153 -22 -178 4 -18 2 -30 -6 -33 -7 -2 -9
-7 -6 -11 3 -3 18 5 33 19 15 14 29 25 32 25 12 0 -10 -47 -37 -83 -17 -20
-26 -37 -21 -37 16 0 67 64 81 101 7 18 18 44 24 56 17 38 3 35 -42 -8 -23
-23 -44 -39 -47 -36 -3 2 0 24 5 48 16 72 22 185 6 137z"/>
<path d="M991 294 c0 -11 3 -14 6 -6 3 7 2 16 -1 19 -3 4 -6 -2 -5 -13z"/>
<path d="M877 293 c-4 -3 -7 -11 -7 -17 0 -6 5 -5 12 2 6 6 9 14 7 17 -3 3 -9
2 -12 -2z"/>
<path d="M966 236 c-4 -19 -10 -36 -14 -39 -4 -2 -1 -2 7 0 8 2 11 -2 7 -12
-3 -8 -1 -15 4 -15 6 0 10 23 10 50 0 58 -5 64 -14 16z"/>
<path d="M639 185 c-18 -36 -37 -65 -41 -65 -4 0 -8 -6 -8 -14 0 -8 -3 -16 -7
-18 -13 -5 -63 -82 -57 -87 2 -3 12 6 21 19 l17 24 7 -24 7 -25 1 25 c1 25 40
94 42 75 3 -28 -4 -71 -13 -76 -5 -4 -3 -9 5 -12 13 -5 17 7 23 61 4 37 15 91
25 121 11 30 17 56 15 58 -2 2 -18 -26 -37 -62z"/>
<path d="M287 123 c-4 -3 -7 -11 -7 -17 0 -6 5 -4 10 4 7 11 10 7 10 -18 0
-20 4 -31 10 -27 6 3 10 -4 10 -16 0 -15 3 -20 10 -13 6 6 2 24 -11 52 -23 45
-23 45 -32 35z"/>
<path d="M10 100 c0 -11 5 -20 10 -20 6 0 10 9 10 20 0 11 -4 20 -10 20 -5 0
-10 -9 -10 -20z"/>
<path d="M881 84 c0 -11 3 -14 6 -6 3 7 2 16 -1 19 -3 4 -6 -2 -5 -13z"/>
<path d="M173 46 c7 -50 17 -58 15 -12 -1 20 -5 39 -11 43 -5 3 -7 -10 -4 -31z"/>
<path d="M1073 46 c-32 -30 -41 -46 -25 -46 12 0 72 58 72 69 0 17 -13 11 -47
-23z"/>
<path d="M340 30 c0 -5 5 -10 10 -10 6 0 10 5 10 10 0 6 -4 10 -10 10 -5 0
-10 -4 -10 -10z"/>
<path d="M821 24 c0 -11 3 -14 6 -6 3 7 2 16 -1 19 -3 4 -6 -2 -5 -13z"/>
<path d="M970 29 c0 -5 5 -7 10 -4 6 3 10 8 10 11 0 2 -4 4 -10 4 -5 0 -10 -5
-10 -11z"/>
</g>
</svg>
