<?xml version="1.0" standalone="no"?>
<!DOCTYPE svg PUBLIC "-//W3C//DTD SVG 20010904//EN"
 "http://www.w3.org/TR/2001/REC-SVG-20010904/DTD/svg10.dtd">
<svg version="1.0" xmlns="http://www.w3.org/2000/svg"
 width="258.000000pt" height="302.000000pt" viewBox="0 0 258.000000 302.000000"
 preserveAspectRatio="xMidYMid meet">

<g transform="translate(0.000000,302.000000) scale(0.100000,-0.100000)"
fill="#000000" stroke="none">
<path d="M695 2993 c-302 -64 -538 -278 -634 -573 -46 -141 -68 -426 -40 -525
14 -50 19 -41 50 100 l22 100 13 -95 c7 -52 25 -129 40 -170 32 -89 32 -101 5
-205 -28 -106 -44 -272 -36 -365 15 -166 67 -315 138 -395 l36 -40 1 27 c0 15
-5 50 -11 77 -16 76 -9 94 20 48 12 -20 30 -41 40 -46 15 -9 16 -4 10 47 -3
31 -4 59 -2 61 2 3 25 -16 51 -41 109 -105 279 -190 497 -248 125 -34 147 -51
113 -87 -11 -12 -29 -25 -40 -29 -10 -3 -18 -11 -18 -17 0 -7 -20 -20 -45 -30
-111 -46 -126 -76 -129 -265 -3 -147 -10 -184 -61 -304 -11 -27 17 -23 34 5 8
12 24 52 36 89 l21 68 25 -32 c40 -54 48 -71 49 -110 0 -52 25 -51 34 2 5 32
9 38 24 33 9 -4 -6 15 -34 43 -74 72 -77 87 -44 224 16 63 25 117 21 120 -9 5
-31 45 -31 54 0 5 94 56 104 56 3 0 46 -171 46 -186 0 -2 -17 -4 -37 -4 -71 0
-80 -7 -87 -61 -4 -27 -9 -56 -12 -64 -4 -10 0 -15 13 -15 16 0 18 -6 15 -38
-3 -34 2 -46 47 -100 77 -93 76 -93 61 23 -5 39 -7 86 -4 105 l6 35 59 0 59 0
0 -62 c0 -34 -5 -85 -11 -113 -6 -28 -9 -54 -6 -57 10 -10 117 80 123 104 4
13 4 37 0 53 -5 29 6 41 19 20 15 -24 33 -5 52 57 12 38 19 71 17 75 -3 4 -23
13 -44 19 -36 11 -55 29 -30 29 18 0 89 71 141 141 l51 69 28 -15 c37 -19 43
-30 25 -45 -48 -40 -82 -249 -63 -395 6 -50 12 -102 12 -117 1 -20 6 -28 19
-28 21 0 21 8 3 57 -22 57 -28 167 -16 272 10 92 45 201 66 208 16 5 31 -57
49 -197 15 -124 36 -215 70 -297 14 -35 22 -43 42 -43 16 0 23 4 20 13 -56
128 -69 167 -79 231 l-12 76 37 35 c46 45 92 111 117 171 11 26 23 44 26 41 3
-3 1 -53 -6 -112 -10 -100 -43 -234 -75 -311 -8 -19 -12 -34 -9 -34 17 0 92
47 144 90 111 93 223 246 265 363 14 37 24 54 28 44 7 -18 0 -246 -9 -301 l-6
-39 33 20 c53 33 125 129 160 211 45 109 62 215 56 347 -4 104 -4 109 12 85
28 -43 128 -164 160 -194 17 -16 34 -26 38 -23 3 4 -14 73 -40 155 -74 236
-78 269 -87 692 -6 279 -12 398 -24 465 -66 359 -239 592 -561 758 -119 61
-262 109 -350 117 -50 4 -114 19 -169 39 -138 51 -264 71 -429 70 -85 0 -170
-7 -212 -16z m350 -43 c376 -43 674 -242 840 -562 59 -112 111 -272 126 -384
12 -90 8 -210 -7 -224 -5 -4 -25 -10 -45 -13 l-37 -5 -4 86 c-3 48 -11 103
-20 122 -14 34 -14 34 -10 -32 5 -85 -11 -210 -38 -281 -23 -61 -96 -177 -111
-177 -5 0 -9 21 -9 48 0 47 -37 312 -44 320 -2 2 -7 -9 -9 -25 -27 -139 -41
-193 -51 -190 -20 6 -57 130 -63 207 l-6 75 24 -20 24 -20 -19 22 c-12 14 -24
55 -32 108 -12 73 -36 145 -48 145 -2 0 0 -19 5 -42 4 -24 8 -66 9 -95 l0 -52
-31 11 c-18 6 -58 8 -94 5 l-63 -6 -33 137 -34 137 -7 -110 c-6 -114 -37 -233
-79 -305 l-20 -35 5 30 c7 43 10 157 7 250 -3 79 -4 79 -13 35 -5 -25 -19 -87
-30 -139 -19 -88 -80 -228 -124 -286 -15 -20 -16 -19 -49 20 -82 96 -154 255
-185 405 l-17 85 -13 -60 c-7 -36 -10 -93 -7 -142 2 -46 3 -83 1 -83 -2 0 -15
22 -28 48 -32 64 -50 159 -43 235 l6 62 -25 -40 c-22 -37 -64 -136 -64 -153 0
-12 -100 -40 -106 -30 -4 5 -3 38 1 74 3 35 4 64 0 64 -3 0 -24 -37 -45 -82
-50 -105 -86 -250 -101 -403 -6 -66 -12 -121 -13 -122 -1 -1 -28 55 -60 125
-101 220 -126 370 -87 524 19 72 84 214 138 302 l25 41 -37 -35 c-80 -76 -154
-187 -205 -312 l-30 -73 6 50 c51 395 289 675 637 749 129 28 206 31 342 16z
m628 -151 c144 -48 220 -116 301 -268 52 -101 108 -261 127 -371 17 -98 15
-310 -4 -375 l-14 -50 -11 40 c-7 22 -12 81 -12 131 0 336 -170 678 -440 886
-42 33 -29 35 53 7z m415 -248 c112 -111 183 -229 231 -385 43 -140 53 -235
61 -621 7 -319 11 -383 29 -467 12 -54 26 -110 31 -124 6 -15 9 -29 7 -31 -6
-6 -139 192 -176 261 -17 33 -33 62 -36 64 -4 4 13 -62 45 -178 31 -109 38
-290 16 -400 -20 -97 -62 -205 -106 -270 -27 -40 -30 -42 -23 -15 16 61 7 256
-16 352 -25 101 -41 127 -41 65 0 -102 -70 -281 -153 -392 -45 -61 -176 -200
-188 -200 -4 0 1 24 12 54 44 127 49 295 11 405 l-18 53 -18 -63 c-19 -72 -67
-164 -123 -240 l-38 -50 -11 63 c-7 35 -24 109 -38 166 -15 56 -29 130 -33
164 -5 52 -4 63 12 74 28 21 30 18 30 -33 0 -25 5 -48 11 -50 21 -7 111 75
154 139 35 53 41 58 37 33 -3 -16 -9 -48 -12 -70 l-7 -40 37 35 c66 63 109
156 135 292 12 66 14 68 56 89 57 29 106 81 140 149 35 70 45 194 21 268 -16
46 -15 51 9 128 24 74 26 88 21 239 -3 129 -9 179 -30 256 -31 117 -76 231
-122 310 -19 33 -35 62 -35 65 0 11 58 -37 118 -95z m-1462 -508 c-11 -11 -17
4 -9 23 7 18 8 18 11 1 2 -10 1 -21 -2 -24z m-84 -123 l-19 -85 -23 72 c-12
40 -20 78 -18 85 6 17 72 38 76 24 1 -6 -6 -49 -16 -96z m98 93 c1 -32 54
-117 89 -140 42 -29 52 -18 45 47 -4 39 -3 42 7 20 84 -187 153 -288 207 -302
19 -5 30 4 67 56 24 34 49 75 55 90 16 42 20 28 8 -33 -10 -58 -6 -70 16 -51
44 35 112 166 137 260 l12 45 10 -29 c8 -24 7 -32 -9 -43 -18 -14 -18 -14 -1
-11 16 2 24 -14 51 -95 l32 -97 -40 -11 c-55 -15 -87 -38 -102 -76 -25 -59
-18 -71 21 -33 19 19 35 32 35 29 0 -2 -7 -22 -15 -44 -30 -83 -10 -280 33
-329 38 -42 151 -61 219 -35 69 26 112 99 114 194 1 59 1 60 14 30 21 -45 18
-110 -11 -215 -15 -52 -37 -151 -49 -219 -13 -68 -27 -127 -32 -131 -17 -16
-202 -83 -293 -107 -81 -21 -110 -24 -200 -20 -165 8 -385 86 -543 191 -109
72 -153 122 -166 190 -11 57 -19 300 -10 284 4 -7 9 -6 14 2 5 7 18 -7 36 -39
16 -28 33 -51 38 -51 4 0 11 39 15 87 4 57 14 104 29 137 l23 50 -4 -127 c-5
-152 8 -203 62 -237 70 -43 173 -17 200 50 44 111 47 292 6 374 -33 66 -60 81
-138 81 l-64 0 7 55 c7 63 34 201 41 212 10 15 34 8 34 -9z m-200 -18 c0 -8
-4 -15 -10 -15 -5 0 -7 7 -4 15 4 8 8 15 10 15 2 0 4 -7 4 -15z m10 -50 c0
-25 40 -122 67 -161 19 -29 22 -39 12 -42 -8 -3 -35 -26 -60 -52 -52 -53 -79
-119 -81 -194 0 -30 -5 -45 -12 -43 -28 10 13 464 46 504 12 15 28 8 28 -12z
m1035 1 c19 -8 35 -21 35 -28 0 -24 -27 -113 -46 -151 -15 -31 -23 -37 -43
-35 -23 3 -29 14 -58 103 -17 55 -32 103 -32 107 -2 19 101 22 144 4z m59
-207 c4 -23 5 -43 4 -45 -2 -1 -14 5 -26 15 -21 15 -22 20 -11 44 17 37 25 34
33 -14z m488 -29 c53 -41 76 -166 49 -265 -15 -57 -65 -132 -103 -155 -18 -11
-36 -20 -39 -20 -4 0 -10 44 -13 98 -4 54 -11 116 -16 138 -8 31 -6 41 7 51
38 29 84 -41 64 -98 -15 -42 -13 -48 4 -25 25 33 19 103 -10 132 -17 17 -32
23 -45 19 -39 -12 1 46 45 66 32 14 36 19 22 25 -30 11 -67 -13 -86 -57 -15
-33 -20 -38 -25 -23 -10 32 18 108 45 121 35 18 73 16 101 -7z m-1771 -134
l39 -80 1 -135 c0 -75 4 -183 8 -241 5 -58 7 -107 5 -109 -7 -7 -44 91 -51
132 l-6 42 -9 -30 c-5 -16 -12 -64 -16 -105 l-8 -75 -22 69 c-35 107 -45 198
-39 336 6 145 34 310 49 289 5 -8 27 -50 49 -93z m440 67 c39 -33 68 -95 69
-146 0 -21 -7 -70 -16 -110 -13 -56 -24 -79 -50 -105 -31 -31 -38 -33 -72 -27
-94 17 -117 60 -117 215 0 93 4 122 19 150 24 45 32 50 88 50 36 0 54 -6 79
-27z m782 10 c67 -34 87 -56 104 -113 20 -69 20 -167 0 -206 -43 -83 -142
-117 -232 -80 -49 21 -65 53 -78 156 -10 80 -9 100 6 158 24 90 36 102 109
102 35 0 72 -7 91 -17z m210 -93 l6 -95 -20 50 c-19 47 -20 109 -3 137 10 15
11 7 17 -92z m186 -125 c17 -152 -5 -325 -57 -445 l-19 -45 4 120 4 120 -29
-80 c-15 -44 -40 -103 -56 -131 -29 -53 -123 -174 -135 -174 -13 0 58 364 95
492 11 35 23 52 50 69 l36 22 -23 18 -24 18 36 30 c19 16 48 48 64 71 36 52
40 45 54 -85z m-419 -673 c0 -21 6 -61 14 -90 7 -29 11 -52 8 -52 -3 0 -29 11
-58 25 -29 14 -68 27 -86 29 -28 3 -33 7 -36 32 -3 40 5 48 73 72 83 28 85 28
85 -16z m-200 -51 c0 -15 3 -48 6 -73 6 -42 4 -47 -45 -106 -28 -33 -67 -73
-86 -88 -52 -40 -60 -26 -61 114 0 64 -4 127 -8 140 -7 21 -5 22 51 23 32 1
72 5 88 9 51 13 55 11 55 -19z m142 -80 c14 -5 4 -23 -54 -101 -67 -89 -78
-99 -177 -157 -57 -35 -106 -61 -108 -59 -6 6 40 80 56 90 39 24 109 98 158
168 58 83 58 83 125 59z m-359 -73 c3 -46 11 -98 18 -116 9 -26 9 -43 0 -74
-7 -22 -16 -37 -21 -32 -4 5 -15 45 -24 89 -9 44 -23 103 -30 132 -13 50 -13
53 8 67 38 27 43 20 49 -66z m-189 -89 c11 -27 10 -39 -13 -102 l-26 -72 -3
74 c-3 64 10 131 25 131 2 0 10 -14 17 -31z m156 -131 c0 -33 -11 -44 -45 -51
-16 -3 -40 -8 -53 -12 -22 -7 -23 -6 -16 31 9 54 9 54 65 54 44 0 49 -2 49
-22z m263 0 c12 -6 16 -15 12 -26 -4 -9 -9 -32 -12 -49 -6 -38 -10 -39 -35
-16 -10 9 -39 23 -65 32 -27 9 -50 21 -52 26 -2 6 14 20 35 32 39 23 75 23
117 1z m-208 -38 c14 0 25 -4 25 -10 0 -5 -16 -10 -35 -10 -32 0 -35 3 -35 28
1 23 2 24 11 10 5 -10 21 -18 34 -18z m-85 -126 l0 -96 -35 46 c-34 45 -41 69
-29 113 5 19 14 24 57 32 4 0 7 -42 7 -95z m204 73 c11 -8 20 -31 23 -60 5
-46 4 -49 -37 -87 -24 -22 -45 -39 -46 -37 -2 1 1 20 6 42 5 22 10 66 10 98 0
60 9 69 44 44z"/>
<path d="M671 1786 c2 -2 15 -9 29 -15 24 -11 24 -11 6 3 -16 13 -49 24 -35
12z"/>
<path d="M1275 1750 c-7 -12 2 -12 30 0 19 8 19 9 -2 9 -12 1 -25 -3 -28 -9z"/>
<path d="M505 1143 c-39 -21 -16 -29 24 -8 17 8 31 18 31 20 0 10 -26 4 -55
-12z"/>
<path d="M1342 1123 c-18 -8 -30 -18 -28 -20 7 -8 76 18 76 28 0 13 -10 11
-48 -8z"/>
<path d="M555 1120 c-8 -13 15 -13 35 0 12 8 11 10 -7 10 -12 0 -25 -4 -28
-10z"/>
<path d="M1401 1109 c-13 -5 -22 -12 -19 -14 6 -6 58 12 58 20 0 7 -11 5 -39
-6z"/>
<path d="M838 1093 c-36 -6 -43 -33 -23 -92 45 -136 161 -206 250 -151 40 25
63 72 77 156 8 49 8 68 -1 77 -12 12 -248 20 -303 10z m37 -53 c-31 -33 -45
-31 -45 6 0 21 4 24 37 24 l37 0 -29 -30z m208 24 c43 -8 46 -20 22 -101 -36
-122 -148 -138 -225 -31 -17 22 -30 44 -30 48 0 4 19 26 41 49 39 38 45 41 98
41 31 0 73 -3 94 -6z"/>
<path d="M1465 1090 c-3 -5 1 -10 9 -10 8 0 18 5 21 10 3 6 -1 10 -9 10 -8 0
-18 -4 -21 -10z"/>
</g>
</svg>
