<?xml version="1.0" standalone="no"?>
<!DOCTYPE svg PUBLIC "-//W3C//DTD SVG 20010904//EN"
 "http://www.w3.org/TR/2001/REC-SVG-20010904/DTD/svg10.dtd">
<svg version="1.0" xmlns="http://www.w3.org/2000/svg"
 width="500.000000pt" height="500.000000pt" viewBox="0 0 500.000000 500.000000"
 preserveAspectRatio="xMidYMid meet">

<g transform="translate(0.000000,500.000000) scale(0.100000,-0.100000)"
fill="#000000" stroke="none">
<path d="M1257 4373 c-10 -9 12 -43 62 -96 64 -68 130 -101 116 -57 -8 25 -4
25 37 0 43 -26 61 -26 53 0 -3 11 -2 20 3 20 6 0 63 -34 128 -75 65 -41 120
-72 122 -70 3 2 -23 53 -57 113 -33 60 -61 115 -61 123 1 8 28 -15 61 -51 60
-65 60 -65 53 -30 -3 19 -14 51 -23 70 -15 33 -20 35 -76 41 -93 10 -412 19
-418 12z"/>
<path d="M470 4357 c0 -8 20 -61 45 -118 25 -57 45 -105 45 -106 0 -2 -9 -3
-20 -3 -11 0 -20 -4 -20 -10 0 -22 -17 -8 -39 30 -34 61 -45 62 -38 1 9 -74
-7 -63 -67 50 -50 92 -51 93 -55 59 -1 -19 2 -72 9 -118 8 -55 9 -87 2 -95
-12 -15 2 -123 23 -173 18 -43 18 -44 6 -44 -5 0 -23 21 -41 48 l-32 47 5 -51
c7 -59 46 -163 88 -230 22 -33 27 -49 19 -54 -14 -9 -9 -28 35 -130 18 -41 42
-102 52 -135 18 -56 21 -60 49 -58 25 2 475 115 513 129 11 3 6 11 -17 24 -37
23 -40 35 -11 43 18 5 12 14 -49 72 -66 62 -152 177 -152 204 0 7 15 1 35 -15
19 -14 35 -24 35 -21 0 3 -34 55 -75 116 -41 61 -88 138 -106 172 l-31 62 27
-7 c24 -6 27 -5 20 11 -46 114 -58 158 -64 228 l-6 80 -92 3 c-75 2 -93 0 -93
-11z"/>
<path d="M930 4357 c0 -7 20 -42 45 -78 25 -35 45 -67 45 -71 0 -10 -28 1 -72
29 -51 32 -48 14 12 -69 28 -38 50 -71 50 -73 0 -10 -48 -5 -95 10 -27 8 -51
12 -53 10 -11 -11 71 -138 127 -198 35 -37 61 -71 57 -74 -4 -4 -36 7 -71 25
-75 37 -80 31 -39 -51 31 -63 95 -132 147 -158 41 -22 41 -39 -1 -39 -15 0
-33 -4 -40 -9 -29 -18 87 -79 184 -97 59 -10 69 -22 43 -51 -22 -22 -22 -23
-3 -23 19 0 113 15 162 26 17 3 22 10 20 27 -2 13 -9 21 -18 19 -7 -2 -25 0
-39 3 l-25 6 32 25 c18 14 32 34 32 44 0 16 -4 17 -36 8 -53 -14 -60 2 -19 42
19 19 35 38 35 42 0 4 -17 8 -37 8 -41 1 -144 39 -150 55 -1 6 15 20 37 33 22
12 40 26 40 31 0 5 -20 16 -45 26 -50 19 -55 38 -11 43 l27 3 -43 47 c-54 57
-109 137 -101 145 3 3 26 -4 52 -17 50 -25 101 -40 101 -30 0 3 -16 28 -35 54
-35 48 -75 131 -75 156 0 8 7 14 15 14 8 0 15 9 15 20 0 25 5 25 37 0 15 -11
28 -18 31 -15 3 2 -6 29 -19 60 l-24 55 -147 0 c-116 0 -148 -3 -148 -13z"/>
<path d="M2520 4318 c0 -3 21 -50 46 -104 54 -116 101 -234 157 -394 l41 -115
1 -275 c2 -151 7 -295 12 -320 13 -60 77 -214 135 -325 98 -185 127 -254 178
-420 28 -93 74 -222 101 -286 46 -111 48 -118 35 -150 -21 -53 -27 -109 -12
-109 23 0 36 -112 15 -125 -6 -4 -13 2 -16 14 -9 34 -21 24 -28 -21 -14 -98
-12 -95 -58 -96 -65 -3 -92 13 -116 68 -20 47 -52 158 -85 295 -10 42 -36 104
-66 156 -28 48 -50 89 -50 93 0 3 18 22 39 42 67 60 76 139 29 244 l-20 45
-29 -57 c-30 -59 -73 -98 -89 -82 -5 5 -22 44 -39 86 -180 455 -477 770 -776
823 -223 40 -573 5 -1105 -110 -284 -61 -514 -104 -595 -110 -127 -10 -127
-10 -123 -53 l3 -37 65 3 c36 1 135 13 220 26 263 42 227 45 289 -25 44 -49
52 -63 40 -70 -18 -13 -4 -23 150 -110 93 -53 116 -69 114 -86 -2 -19 4 -21
110 -26 125 -5 188 -23 219 -62 28 -36 79 -60 205 -96 59 -17 120 -37 134 -45
36 -18 242 -205 235 -212 -4 -3 -63 -11 -131 -18 -406 -42 -797 -241 -1300
-662 -212 -178 -355 -304 -355 -314 0 -18 22 -2 180 133 272 233 416 345 590
461 262 174 515 288 735 332 93 19 244 35 263 28 16 -6 52 -75 52 -100 0 -31
-19 -39 -123 -52 -221 -27 -403 -77 -592 -162 -250 -113 -474 -270 -910 -634
-187 -157 -190 -160 -199 -208 -5 -27 -5 -51 0 -56 6 -6 65 39 143 106 220
190 494 389 696 507 132 76 362 182 490 225 222 75 480 112 634 93 47 -6 85
-10 86 -8 1 1 -3 34 -10 72 -10 53 -13 61 -14 33 -1 -38 -18 -59 -31 -39 -11
20 -21 194 -11 204 6 6 14 0 22 -14 6 -13 22 -35 35 -49 13 -14 37 -39 53 -57
48 -52 67 -184 29 -191 -14 -3 -18 3 -19 25 0 15 -4 37 -9 48 -7 16 -9 13 -9
-16 -1 -19 5 -42 12 -50 16 -20 320 -313 372 -360 l41 -36 18 -299 c10 -164
22 -303 27 -309 7 -7 8 4 5 30 -8 59 -29 555 -24 560 8 8 123 -36 134 -51 7
-8 15 -36 19 -62 4 -26 27 -141 52 -257 39 -178 46 -232 50 -355 3 -80 9 -149
14 -155 5 -5 9 16 9 53 0 34 4 62 9 62 5 0 17 -25 25 -54 9 -30 21 -58 26 -61
14 -9 13 1 -15 98 -36 125 -80 309 -131 557 -85 411 -93 436 -160 510 -20 22
-118 102 -218 179 -100 77 -191 151 -203 163 -20 23 -47 87 -39 95 2 3 23 -15
46 -39 l42 -43 -39 55 c-40 55 -103 188 -103 215 0 32 31 0 69 -73 38 -73 152
-204 166 -190 3 3 -21 29 -53 57 -39 34 -71 74 -92 114 -18 34 -45 82 -60 107
-15 25 -31 66 -35 93 -3 26 -9 47 -11 47 -3 0 -25 -11 -48 -25 -41 -24 -136
-45 -136 -30 0 4 11 20 25 37 32 38 33 62 3 52 -36 -11 -152 -8 -176 5 l-23
12 21 29 c32 45 27 53 -29 45 -59 -8 -123 8 -168 42 -39 30 -79 110 -89 176
-3 26 -10 47 -14 47 -10 0 -60 -51 -60 -61 0 -5 -6 -9 -14 -9 -23 0 -39 66
-34 141 3 38 2 69 -2 69 -4 0 -26 -18 -48 -40 -22 -22 -42 -40 -45 -40 -7 0
-23 58 -30 111 l-5 37 56 11 c82 17 281 26 262 12 -8 -6 -31 -11 -50 -12 -19
0 -28 -3 -20 -6 8 -3 26 -10 39 -15 22 -8 23 -9 7 -27 -21 -23 -13 -29 58 -45
48 -11 51 -14 48 -40 -3 -28 -2 -29 35 -22 21 3 47 8 58 11 15 5 24 -2 39 -30
25 -46 40 -45 32 3 -17 98 -13 92 -63 92 -44 0 -45 1 -39 26 7 25 5 26 -22 21
-35 -7 -46 1 -30 20 9 11 9 17 -3 24 -9 7 27 9 111 6 211 -8 367 -73 505 -212
113 -112 185 -237 276 -475 25 -66 41 -93 72 -120 78 -68 103 -98 165 -203 98
-166 110 -195 132 -305 45 -226 216 -619 432 -992 64 -111 113 -203 128 -244
6 -16 13 -26 16 -23 13 12 -30 109 -102 232 -129 221 -164 290 -164 324 0 17
2 31 4 31 13 0 137 -77 176 -110 56 -46 84 -61 189 -105 110 -46 231 -119 285
-171 41 -39 126 -170 126 -193 0 -14 39 -23 81 -19 43 4 52 23 74 155 12 71
16 142 14 232 -4 139 5 176 16 64 15 -169 13 -165 78 -138 59 25 101 20 131
-15 23 -28 25 -36 20 -98 -5 -57 -3 -64 8 -47 18 28 24 540 8 662 -13 102 -74
370 -118 524 -29 99 -30 109 -19 172 6 37 15 67 19 67 4 0 8 -37 8 -82 1 -75
2 -81 15 -64 18 23 40 98 61 203 21 106 23 111 34 93 6 -8 10 -57 10 -107 0
-96 9 -114 30 -63 7 16 18 35 26 41 11 9 14 6 14 -17 0 -22 3 -26 10 -14 12
18 13 340 2 340 -5 0 -14 -44 -20 -98 -12 -104 -19 -132 -32 -132 -17 0 -33
80 -60 293 -20 161 -37 241 -40 192 -7 -104 -38 -330 -45 -330 -6 0 -18 103
-29 238 -16 191 -22 234 -31 217 -6 -11 -14 -17 -18 -14 -4 4 -7 104 -8 223
-1 161 -3 207 -11 181 -20 -74 -27 -50 -26 96 0 161 -14 228 -69 339 -24 46
-130 162 -140 152 -2 -3 16 -41 42 -84 91 -157 115 -245 115 -423 0 -196 -43
-440 -96 -543 -25 -47 -28 -23 -5 45 24 74 51 188 45 188 -3 0 -23 -14 -45
-32 -42 -34 -79 -39 -131 -19 -24 9 -27 16 -33 78 -15 135 -50 203 -107 203
-16 0 -39 -7 -52 -15 -23 -16 -24 -15 -31 31 -13 89 -20 82 -20 -22 l0 -104
33 40 c50 60 65 65 101 34 86 -72 86 -380 1 -486 -34 -42 -36 -51 -15 -68 28
-23 17 -33 -32 -26 -65 9 -71 18 -44 67 20 35 23 51 19 117 -3 64 -11 93 -47
175 -24 54 -45 96 -47 94 -2 -1 15 -59 37 -127 35 -106 40 -134 36 -185 -5
-66 -31 -130 -49 -119 -6 4 -9 28 -5 63 2 31 1 67 -3 81 -6 22 -8 18 -18 -28
-20 -90 -37 -119 -82 -142 -63 -32 -65 -26 -34 110 8 37 14 98 12 140 l-3 75
-19 -72 c-10 -40 -22 -73 -26 -73 -4 0 -10 43 -14 96 -7 99 -37 270 -55 314
-7 19 -10 1 -10 -82 -1 -60 -5 -108 -10 -108 -5 0 -17 21 -26 48 -8 26 -23 56
-32 67 -14 19 -15 15 -9 -50 3 -38 9 -87 12 -107 4 -23 3 -38 -3 -38 -23 0
-93 207 -121 352 -28 151 -42 111 -42 -122 0 -143 -2 -162 -14 -150 -19 19
-60 162 -76 263 -7 43 -16 75 -19 71 -3 -3 -8 -59 -11 -125 -3 -66 -9 -120
-15 -122 -11 -2 -33 132 -34 213 -1 87 -17 45 -31 -83 -9 -88 -15 -116 -24
-107 -7 7 -11 60 -11 150 0 76 -3 136 -7 134 -3 -2 -19 -36 -34 -74 -15 -39
-30 -68 -33 -65 -18 19 19 200 55 264 27 49 26 58 -4 42 -41 -22 -43 -6 -6 38
l26 31 -36 0 c-20 0 -59 -11 -86 -25 -27 -14 -51 -21 -54 -17 -9 15 -56 211
-56 235 0 35 39 40 141 17 105 -24 119 -24 119 -2 0 9 29 38 63 64 116 87 236
128 377 128 108 0 184 -18 317 -75 58 -25 108 -45 111 -45 3 0 -5 11 -18 25
-28 29 -19 45 44 78 32 16 60 21 126 21 166 1 247 -62 370 -290 41 -77 107
-182 146 -234 90 -121 127 -179 198 -311 73 -138 133 -278 151 -354 16 -65 20
-235 6 -235 -4 0 -14 34 -20 75 -7 41 -13 75 -14 75 -2 0 -2 -73 -2 -163 0
-141 -2 -167 -18 -190 -10 -16 -16 -34 -14 -40 5 -13 46 69 47 93 0 8 9 28 19
44 44 66 36 300 -14 433 -67 177 -195 406 -324 578 -37 50 -89 131 -116 180
-90 169 -128 225 -177 270 -66 60 -137 85 -239 85 -86 0 -130 -13 -187 -57
-32 -24 -38 -25 -66 -14 -17 8 -73 26 -125 42 -77 24 -111 29 -195 29 -58 0
-128 -7 -161 -15 -85 -21 -190 -77 -260 -136 -58 -50 -60 -51 -105 -43 -25 4
-80 8 -123 8 l-78 2 -43 101 c-57 133 -146 299 -146 271z m739 -1108 c31 -123
114 -290 142 -290 6 0 8 4 4 9 -3 5 -1 12 3 15 5 3 19 -17 32 -44 17 -36 21
-57 16 -82 -4 -18 -15 -84 -26 -146 -16 -92 -25 -123 -55 -171 -46 -75 -82
-188 -95 -298 -11 -99 -18 -111 -57 -97 -33 11 -68 76 -78 148 -7 43 -6 48 8
43 11 -4 33 13 72 56 30 34 50 64 44 66 -6 2 -37 -18 -70 -43 -60 -47 -74 -53
-83 -37 -3 5 -23 67 -45 138 -25 83 -53 152 -79 195 -93 151 -152 291 -152
358 0 47 46 210 65 229 16 16 16 15 34 -106 10 -67 43 -168 60 -186 4 -4 5 47
3 112 -7 191 12 227 41 78 13 -69 15 -100 8 -120 -10 -25 -9 -26 10 -14 16 10
21 9 30 -3 5 -8 8 -25 6 -37 -5 -30 4 -29 34 3 17 18 19 23 6 19 -28 -11 -41
35 -16 57 19 16 19 17 0 23 -23 7 -31 33 -31 108 0 67 15 75 30 15 14 -54 35
-110 63 -167 l22 -43 -21 -17 c-84 -68 -106 -91 -100 -106 9 -25 29 -16 105
49 l69 59 -18 26 c-16 22 -19 47 -21 151 -1 69 -1 132 0 140 2 29 18 -7 40
-90z m791 -492 c0 -29 -4 -59 -9 -67 -11 -17 -51 -5 -51 14 0 20 42 105 52
105 4 0 8 -24 8 -52z m-221 -83 c90 -31 198 -122 237 -197 13 -27 30 -47 36
-45 15 3 62 -81 84 -148 9 -27 36 -86 59 -131 43 -80 109 -269 99 -285 -2 -4
-21 3 -41 16 -20 14 -46 25 -59 25 -30 0 -33 6 -49 93 -7 42 -13 59 -14 41 -1
-17 6 -71 14 -119 18 -102 9 -125 -25 -68 -29 49 -37 28 -14 -39 15 -48 18
-50 26 -29 5 13 10 22 13 20 2 -2 1 -57 -2 -122 -3 -65 -9 -114 -13 -110 -4 4
-15 62 -24 128 -9 66 -21 137 -27 157 -25 96 -222 263 -374 316 -79 27 -136
27 -199 -3 -41 -20 -139 -111 -199 -185 -19 -24 -39 -41 -44 -36 -4 4 -8 87
-7 184 0 192 12 249 72 352 36 63 126 155 175 179 52 26 210 29 276 6z m159 0
c18 -4 39 -13 47 -22 17 -17 20 -73 4 -73 -14 0 -119 90 -119 102 0 5 8 7 18
4 9 -2 32 -7 50 -11z m141 -173 c6 -19 6 -32 1 -32 -13 0 -30 35 -30 61 0 30
17 13 29 -29z m-929 -111 c0 -13 -31 -43 -38 -37 -3 3 3 15 13 26 20 22 25 24
25 11z m-1166 -67 c3 -9 6 -52 6 -96 0 -70 -2 -79 -17 -76 -15 3 -19 16 -21
73 -3 74 3 115 17 115 5 0 12 -7 15 -16z m1240 -231 c3 -16 8 -55 12 -88 5
-48 4 -58 -6 -48 -16 15 -60 144 -54 155 12 19 43 7 48 -19z m-98 -505 c4 -6
-1 -17 -11 -25 -28 -20 -36 -16 -23 12 12 27 23 31 34 13z m1016 -60 c-9 -9
-12 -7 -12 12 0 19 3 21 12 12 9 -9 9 -15 0 -24z m-663 -128 c77 -61 127 -131
142 -196 10 -45 10 -57 -1 -64 -15 -9 -72 12 -78 30 -4 12 11 9 57 -8 11 -4
13 2 7 28 -13 65 -86 158 -181 227 -21 16 -25 22 -13 23 9 0 39 -18 67 -40z"/>
<path d="M3237 2263 c-10 -9 -9 -23 2 -23 5 0 11 7 15 15 5 15 -5 20 -17 8z"/>
<path d="M2480 3950 c0 -17 15 -70 34 -118 72 -184 111 -342 104 -413 l-3 -34
-18 35 c-9 19 -21 42 -27 50 -5 8 -23 80 -38 160 -27 132 -78 290 -103 315 -6
6 -1 -15 12 -45 12 -30 28 -75 35 -99 12 -37 77 -326 90 -401 l5 -25 -23 28
c-13 16 -33 54 -45 85 -12 31 -22 48 -22 37 -1 -42 22 -97 69 -169 28 -40 50
-78 50 -84 0 -12 98 -162 106 -162 3 0 -3 16 -15 36 -25 42 -25 44 -7 44 11 0
13 7 6 30 -6 22 -3 40 12 72 23 47 35 162 24 222 -6 31 -9 35 -25 26 -24 -12
-33 -1 -56 70 -10 30 -35 93 -55 140 -21 47 -41 99 -45 117 -3 17 -12 34 -19
36 -8 3 -16 22 -20 41 -8 44 -26 48 -26 6z"/>
<path d="M1568 3854 c-38 -20 -36 -39 2 -19 37 19 86 19 139 0 54 -19 53 -9
-1 15 -51 23 -103 25 -140 4z"/>
<path d="M1633 3780 c-28 -12 -59 -58 -47 -70 6 -6 24 0 46 16 20 15 51 27 68
29 45 3 47 12 3 24 -44 13 -41 12 -70 1z"/>
<path d="M1988 3628 c30 -51 66 -116 78 -145 24 -54 54 -72 54 -32 0 26 -66
185 -92 222 -15 20 -23 25 -32 17 -9 -7 -18 -4 -31 10 -39 43 -31 16 23 -72z"/>
<path d="M1780 3700 c-44 -4 -53 -7 -27 -8 40 -2 156 -37 172 -53 13 -12 28
-11 20 2 -9 14 -86 69 -94 67 -3 -1 -35 -4 -71 -8z"/>
<path d="M1870 3582 c30 -15 76 -49 102 -76 55 -58 66 -46 12 13 -35 40 -124
92 -153 90 -9 0 9 -12 39 -27z"/>
<path d="M3740 3134 c-14 -35 -12 -97 3 -117 10 -14 12 -4 12 63 0 44 -1 80
-3 80 -1 0 -7 -12 -12 -26z"/>
<path d="M2250 2975 c0 -22 120 -367 139 -398 23 -37 69 -83 76 -75 3 2 -15
28 -39 56 -38 44 -52 75 -97 209 -53 161 -78 226 -79 208z"/>
<path d="M4711 2590 c-1 -30 -4 -93 -7 -140 -5 -78 -4 -83 10 -66 18 22 21
149 7 221 l-9 40 -1 -55z"/>
<path d="M4628 2470 c-3 -52 -5 -111 -3 -130 2 -19 4 -57 4 -84 1 -36 4 -47
12 -39 23 23 26 81 10 213 l-17 135 -6 -95z"/>
<path d="M2190 2517 c0 -20 117 -181 153 -210 63 -50 79 -55 25 -8 -26 23 -73
79 -104 124 -63 90 -74 104 -74 94z"/>
<path d="M2560 2341 c0 -5 19 -24 43 -42 l42 -33 -40 42 c-42 45 -45 47 -45
33z"/>
</g>
</svg>
