<?xml version="1.0" standalone="no"?>
<!DOCTYPE svg PUBLIC "-//W3C//DTD SVG 20010904//EN"
 "http://www.w3.org/TR/2001/REC-SVG-20010904/DTD/svg10.dtd">
<svg version="1.0" xmlns="http://www.w3.org/2000/svg"
 width="2838.000000pt" height="3267.000000pt" viewBox="0 0 2838.000000 3267.000000"
 preserveAspectRatio="xMidYMid meet">

<g transform="translate(0.000000,3267.000000) scale(0.100000,-0.100000)"
fill="#000000" stroke="none">
<path d="M14190 32664 c-898 -53 -1784 -292 -2628 -708 -267 -132 -446 -234
-671 -379 l-123 -81 -127 -7 c-1235 -74 -2269 -355 -3086 -837 -359 -212 -664
-450 -970 -757 -480 -479 -860 -1022 -1305 -1865 -136 -257 -298 -588 -574
-1173 -579 -1227 -907 -1869 -1244 -2432 -504 -844 -952 -1384 -1862 -2248
-360 -341 -378 -359 -360 -353 8 3 134 38 280 77 742 199 1486 430 1919 598
115 45 150 55 147 42 -29 -104 -118 -524 -157 -741 -88 -495 -159 -1157 -201
-1870 -17 -286 -17 -1388 0 -1655 48 -777 134 -1357 267 -1819 24 -83 48 -162
53 -176 l10 -25 5 25 c3 14 11 106 17 205 72 1157 330 2239 687 2888 114 207
274 423 287 387 29 -80 143 -886 185 -1315 62 -622 76 -902 76 -1555 0 -588
-5 -718 -46 -1119 -115 -1146 -430 -1998 -929 -2515 -169 -175 -306 -279 -512
-387 -126 -66 -133 -63 82 -33 555 76 1086 273 1491 553 130 89 287 219 359
299 33 36 63 62 66 59 12 -11 5 -264 -10 -395 -32 -269 -115 -712 -219 -1167
l-52 -230 -30 5 c-17 3 -80 5 -141 5 -110 0 -111 0 -197 -43 -108 -53 -221
-157 -304 -280 -33 -48 -228 -352 -433 -677 -686 -1086 -1238 -1933 -1459
-2244 -45 -62 -80 -115 -79 -116 2 -2 113 -17 248 -35 2427 -310 4023 -825
4758 -1535 268 -258 1124 -1373 1658 -2160 627 -923 1026 -1584 2549 -4228
l257 -447 242 0 c184 1 4168 47 4184 50 2 0 -108 116 -245 257 -336 349 -407
423 -569 598 -643 695 -1028 1165 -1150 1405 -48 95 -52 158 -12 217 176 267
985 642 1847 858 391 98 631 135 919 142 224 6 310 -2 429 -38 50 -16 70 -29
107 -70 167 -186 501 -925 965 -2138 105 -272 366 -977 421 -1136 17 -50 35
-96 39 -104 7 -11 115 -11 680 0 369 7 671 16 671 21 0 28 -393 783 -618 1188
-790 1420 -1560 2460 -2140 2888 -48 35 -101 71 -119 80 -29 14 -32 19 -43 96
-31 221 -75 369 -123 420 -30 31 -38 34 -134 44 -607 69 -1261 22 -1888 -134
-566 -141 -1035 -324 -1702 -665 -172 -87 -323 -159 -335 -159 -23 0 -81 83
-186 265 -413 722 -585 1560 -461 2250 11 60 21 111 23 112 1 1 41 -75 88
-170 166 -332 405 -696 630 -960 l33 -39 224 71 c711 226 1432 390 1970 449
l154 17 -126 112 c-632 566 -1203 1310 -1497 1951 l-57 124 49 131 c141 378
320 1066 433 1663 222 1174 333 2382 352 3851 l6 512 42 -97 c136 -322 339
-631 602 -918 91 -100 281 -279 288 -272 2 2 -16 57 -40 123 -181 500 -351
1245 -440 1932 -66 510 -89 898 -89 1468 0 685 40 1201 144 1842 60 368 185
950 217 1004 19 32 92 86 235 172 134 81 791 411 1107 556 317 146 352 162
348 153 -2 -4 -93 -163 -202 -354 l-199 -348 -86 0 c-102 0 -266 -21 -382 -49
-578 -137 -735 -500 -448 -1038 50 -93 141 -235 206 -321 l33 -44 6 29 c36
169 74 272 140 379 105 168 255 257 435 258 75 0 206 -20 214 -33 3 -4 -36
-101 -85 -217 -159 -369 -283 -720 -324 -912 -19 -93 -20 -212 -1 -237 14 -19
17 -18 132 19 85 27 143 40 206 43 83 5 87 5 112 -20 14 -14 26 -36 26 -48 0
-12 -18 -62 -41 -110 -27 -60 -39 -99 -37 -121 l3 -33 74 -6 c85 -6 103 -20
91 -72 -31 -134 -159 -287 -264 -316 -99 -27 -181 50 -222 208 -19 77 -39 97
-98 106 -93 14 -151 -39 -150 -137 2 -126 119 -286 322 -438 114 -86 276 -174
308 -168 28 5 76 83 209 338 280 535 456 830 633 1060 70 91 209 239 255 272
l28 20 272 -180 c150 -98 282 -184 295 -191 l22 -12 0 89 c0 114 -17 281 -40
402 -17 86 -17 97 -3 119 15 23 17 24 117 16 55 -4 121 -8 146 -9 l45 -1 3 91
c1 50 -1 117 -6 148 -6 39 -6 59 2 65 37 29 669 352 681 348 7 -3 102 -65 210
-137 108 -72 198 -130 199 -128 2 2 26 45 55 96 l53 93 -81 141 c-61 105 -79
144 -69 149 7 5 351 244 763 533 413 288 751 520 753 516 10 -25 -186 -562
-309 -846 -504 -1172 -1168 -2079 -1919 -2626 -161 -117 -317 -211 -515 -310
l-180 -90 155 6 c342 13 923 105 1380 220 74 18 136 32 138 31 1 -1 -33 -56
-76 -121 -162 -245 -311 -530 -371 -711 -136 -410 -42 -651 277 -713 88 -18
320 -7 447 19 864 183 2119 942 3169 1917 70 65 162 150 203 189 45 40 73 61
70 50 -3 -11 -11 -40 -17 -65 -6 -25 -34 -121 -62 -215 -164 -553 -463 -1197
-806 -1732 -50 -79 -89 -143 -86 -143 8 0 151 98 254 173 299 220 733 591
1108 944 79 75 146 133 149 129 12 -12 -57 -844 -112 -1361 -35 -317 -74 -655
-80 -682 -3 -13 -2 -23 3 -23 12 0 255 184 363 275 251 212 582 564 795 848
970 1288 1536 3179 1597 5332 l2 80 41 -60 c130 -192 268 -530 378 -926 140
-505 245 -1149 302 -1859 9 -113 17 -206 19 -208 4 -5 93 233 140 373 95 289
174 667 210 1005 36 336 30 833 -16 1220 -163 1388 -813 2933 -1926 4579 -217
321 -409 586 -920 1268 -984 1314 -2067 2455 -3178 3348 -1065 855 -2179 1521
-3410 2040 -808 340 -1691 626 -2875 929 -574 147 -912 194 -1440 200 -168 2
-334 2 -370 0z m625 -254 c299 -20 590 -61 850 -120 373 -86 1249 -329 1725
-479 2157 -679 3909 -1696 5570 -3230 69 -63 266 -255 438 -426 l314 -310 73
-145 c465 -925 835 -2027 994 -2960 73 -427 101 -722 108 -1140 10 -591 -36
-1021 -163 -1523 -285 -1124 -948 -2061 -1968 -2782 -51 -36 -68 -44 -62 -30
63 162 320 938 410 1237 203 676 356 1327 391 1663 3 33 8 74 11 91 l5 32
-178 75 c-98 42 -258 109 -355 150 l-178 75 -68 -142 c-136 -281 -338 -627
-540 -926 -520 -769 -1135 -1416 -1817 -1911 -49 -36 -96 -69 -103 -73 -6 -4
29 50 79 121 491 689 938 1514 1165 2150 141 397 216 741 231 1059 l6 131
-121 48 c-67 27 -124 47 -126 44 -2 -2 -20 -37 -40 -77 -88 -175 -246 -423
-406 -637 -480 -639 -1118 -1211 -1840 -1645 -136 -82 -423 -240 -428 -236 -2
2 91 176 206 387 602 1106 1091 2058 1269 2474 90 213 111 272 97 284 -18 16
-905 313 -919 307 -8 -3 -68 -45 -132 -94 -494 -372 -1047 -735 -1328 -872
-260 -127 -381 -137 -401 -35 -8 45 35 169 102 289 118 211 490 789 668 1036
l55 76 -225 84 c-124 46 -227 87 -230 91 -5 9 252 453 265 457 7 2 446 -99
488 -113 7 -2 59 68 118 156 483 728 1104 1366 1704 1750 l124 79 -51 0 c-68
0 -263 -26 -387 -51 -142 -29 -401 -117 -538 -182 -64 -31 -117 -53 -117 -50
0 10 137 181 236 293 155 176 318 329 477 449 37 28 65 51 62 51 -13 0 -225
-125 -350 -207 -361 -237 -758 -567 -1140 -948 -1028 -1028 -1926 -2386 -2682
-4055 -44 -96 -90 -201 -103 -232 l-24 -58 -53 0 c-157 0 -454 101 -745 253
l-118 62 0 140 c0 372 43 997 87 1245 3 19 3 33 1 30 -12 -11 -153 -343 -242
-567 -772 -1950 -1369 -4508 -1621 -6953 -35 -341 -28 -319 -81 -235 -310 492
-643 1406 -869 2390 -485 2111 -629 4850 -420 8020 8 121 18 252 21 290 l6 70
-22 -20 c-12 -11 -52 -58 -90 -105 -448 -565 -954 -1785 -1386 -3337 -32 -117
-62 -213 -65 -213 -6 0 -22 167 -39 415 -5 72 -15 311 -21 533 -16 543 0 1213
46 1932 9 129 18 262 22 294 l6 59 -32 -19 c-98 -57 -352 -331 -538 -578 -638
-849 -1314 -2195 -2040 -4066 l-134 -345 6 120 c27 543 196 1406 440 2254 30
107 53 196 51 198 -9 9 -103 -62 -172 -131 -342 -342 -781 -1123 -1259 -2241
-120 -282 -312 -755 -396 -977 -18 -49 -35 -88 -39 -88 -13 0 -121 424 -169
665 -110 553 -147 989 -138 1628 6 387 16 558 52 862 90 746 275 1498 524
2124 l22 54 -110 -102 c-130 -121 -388 -396 -570 -609 -855 -996 -1687 -2336
-2306 -3712 -49 -107 -91 -198 -95 -203 -3 -4 4 53 16 125 13 73 34 207 48
298 75 483 239 1246 381 1770 153 564 389 1248 556 1607 20 46 34 85 29 88
-23 15 -221 -311 -365 -603 -117 -234 -216 -463 -303 -697 -63 -169 -215 -627
-227 -683 -6 -28 -15 -37 -63 -58 -271 -121 -787 -302 -1312 -459 -85 -25
-162 -48 -170 -51 -8 -3 14 26 50 63 36 37 126 131 201 208 917 952 1441 1807
2540 4143 590 1255 917 1844 1325 2388 998 1332 2343 1972 4424 2105 l175 11
115 77 c525 354 1254 684 1917 866 443 122 818 184 1323 218 114 8 461 6 605
-3z m-4470 -10744 c77 -27 192 -94 229 -135 15 -16 20 -46 27 -148 66 -979
350 -2288 959 -4421 135 -473 249 -864 540 -1847 521 -1760 751 -2567 964
-3390 228 -882 398 -1673 491 -2290 48 -315 97 -795 82 -795 -3 0 -163 78
-354 173 -1360 676 -2473 1130 -4478 1827 -1617 562 -2172 779 -2938 1145
l-99 47 129 132 c70 72 286 293 478 491 192 198 658 675 1035 1059 377 385
727 744 779 798 52 55 97 95 101 91 4 -4 38 -96 75 -203 307 -887 607 -1528
802 -1713 l30 -28 6 333 c33 1641 243 2978 573 3641 l54 108 -123 142 c-729
845 -1292 1820 -1439 2491 -19 86 -23 131 -22 306 0 184 3 218 26 330 102 477
370 938 774 1330 308 299 631 488 934 545 114 22 266 14 365 -19z m9939 -558
c-53 -139 -156 -363 -289 -627 -144 -285 -367 -693 -382 -698 -14 -5 -250 177
-354 273 -96 89 -234 233 -227 239 2 1 100 67 218 147 270 181 543 372 831
581 123 90 226 162 228 161 2 -2 -9 -36 -25 -76z m-1569 -1102 c136 -64 512
-406 611 -556 25 -37 25 -39 8 -72 -41 -80 -306 -402 -589 -715 l-30 -33 -340
211 c-385 239 -793 485 -908 548 -42 24 -75 46 -72 51 6 10 378 230 532 314
310 170 528 252 728 275 6 0 33 -10 60 -23z m-852 -1755 c53 -35 97 -67 97
-72 0 -22 -44 -94 -83 -136 -50 -54 -84 -73 -133 -73 -49 0 -104 53 -105 102
-3 92 11 147 57 226 24 41 27 42 47 29 12 -8 66 -42 120 -76z"/>
<path d="M20758 24865 c-134 -68 -269 -149 -468 -280 -245 -162 -315 -214
-299 -219 149 -53 644 -204 651 -200 21 13 127 252 166 374 39 121 82 308 82
356 0 13 -6 24 -12 24 -7 0 -61 -25 -120 -55z"/>
<path d="M23526 24333 c-84 -269 -349 -916 -517 -1262 -54 -112 -98 -205 -97
-207 18 -15 640 -355 644 -351 10 9 33 195 50 397 19 231 21 734 5 955 -13
173 -49 478 -60 507 -5 15 -11 7 -25 -39z"/>
<path d="M19655 12894 c-164 -34 -260 -70 -362 -137 -133 -87 -225 -205 -294
-374 -87 -215 -171 -307 -380 -419 -136 -73 -200 -123 -248 -195 -35 -53 -56
-99 -115 -261 -23 -64 -83 -128 -153 -165 -61 -33 -193 -77 -333 -113 -215
-55 -370 -160 -544 -369 -126 -151 -437 -583 -432 -600 37 -119 45 -739 13
-1031 -67 -621 -203 -1282 -412 -2009 -30 -107 -54 -196 -51 -198 2 -3 45 37
95 89 429 441 912 1269 1292 2215 80 201 80 200 124 113 141 -279 160 -1368
54 -3075 -11 -181 -26 -401 -33 -487 -6 -87 -9 -158 -5 -158 3 0 42 23 85 51
386 252 781 767 1075 1400 453 978 707 2191 801 3829 14 249 18 1797 5 1863
l-8 37 -77 -1 c-42 -1 -86 -3 -97 -5z"/>
<path d="M17448 12335 c-16 -17 -8 -110 12 -143 26 -43 98 -88 185 -115 58
-18 93 -22 205 -22 118 1 142 4 195 24 74 30 121 75 130 125 10 48 -3 61 -80
80 -136 35 -626 73 -647 51z"/>
<path d="M1865 8040 c-482 -43 -888 -176 -1185 -387 -364 -261 -590 -670 -659
-1193 -15 -111 -25 -280 -17 -280 4 0 84 29 179 64 1307 485 2462 597 3472
336 768 -198 1471 -624 2043 -1240 377 -405 727 -902 993 -1410 l74 -141 1185
-1022 c651 -562 1195 -1030 1207 -1040 20 -16 15 6 -43 175 -186 548 -471
1261 -754 1888 -118 260 -428 878 -557 1110 -287 514 -580 953 -864 1295 -121
146 -438 459 -557 549 -265 201 -743 448 -1292 668 -809 324 -1613 533 -2365
613 -175 19 -710 28 -860 15z"/>
<path d="M5815 3750 c11 -14 209 -241 440 -505 673 -769 1376 -1587 1789
-2080 88 -104 169 -201 180 -214 16 -19 -5 -11 -89 34 -60 32 -225 119 -365
193 -308 164 -1502 763 -1508 758 -2 -2 346 -429 774 -948 427 -518 778 -944
779 -946 4 -5 2545 153 2545 158 -1 4 -3626 2843 -4488 3515 -42 33 -68 49
-57 35z"/>
</g>
</svg>
